<svg height="512" viewBox="0 0 64 64" width="512" xmlns="http://www.w3.org/2000/svg"><g id="Blue"><path d="m53 24.267c0 18.366-21 36.733-21 36.733s-21-18.367-21-36.733a21 21 0 1 1 42 0z" fill="#4282f5"/><circle cx="32" cy="24" fill="#90b6f9" r="17"/><path d="m25 21v5.734c0 1.251 3.134 2.266 7 2.266s7-1.015 7-2.266v-5.734l-7 2.44z" fill="#206df3"/><path d="m21 19 11-4 11 4-11 4z" fill="#206df3"/><g fill="#0444b7"><path d="m32 2a22.159 22.159 0 0 0 -22 22.267c0 7.84 3.6 16.542 10.7 25.86a86.5 86.5 0 0 0 10.642 11.626 1 1 0 0 0 1.316 0 86.5 86.5 0 0 0 10.642-11.626c7.1-9.318 10.7-18.02 10.7-25.86a22.159 22.159 0 0 0 -22-22.267zm0 57.646c-3.527-3.289-20-19.5-20-35.379a20 20 0 1 1 40 0c0 15.88-16.473 32.09-20 35.379z"/><path d="m32 6a18 18 0 1 0 18 18 18.021 18.021 0 0 0 -18-18zm0 34a16 16 0 1 1 16-16 16.019 16.019 0 0 1 -16 16z"/><path d="m31.684 14.052-12 4a1 1 0 0 0 0 1.9l4.316 1.435v5.613c0 2.916 7.181 3 8 3s8-.084 8-3v-5.613l2-.667v7.558a2 2 0 1 0 2 0v-8.224l.316-.106a1 1 0 0 0 0-1.9l-12-4a.991.991 0 0 0 -.632.004zm6.316 12.82c-.42.41-2.523 1.128-6 1.128s-5.58-.718-6-1.128v-4.818l5.684 1.894a.986.986 0 0 0 .632 0l5.684-1.894zm-6-4.926-8.838-2.946 8.838-2.946 8.838 2.946z"/></g></g></svg>