<svg height="512" viewBox="0 0 64 64" width="512" xmlns="http://www.w3.org/2000/svg"><g id="Filled_Outline" data-name="Filled Outline"><path d="m53 24.267c0 18.366-21 36.733-21 36.733s-21-18.367-21-36.733a21 21 0 1 1 42 0z" fill="#ff9800"/><circle cx="32" cy="24" fill="#eee" r="17"/><path d="m21 21h22l-11-8z" fill="#ff9800"/><path d="m32 2a22.159 22.159 0 0 0 -22 22.267c0 7.84 3.6 16.542 10.7 25.86a86.5 86.5 0 0 0 10.642 11.626 1 1 0 0 0 1.316 0 86.5 86.5 0 0 0 10.642-11.626c7.1-9.318 10.7-18.02 10.7-25.86a22.159 22.159 0 0 0 -22-22.267zm0 57.646c-3.527-3.289-20-19.5-20-35.379a20 20 0 1 1 40 0c0 15.88-16.473 32.09-20 35.379z"/><path d="m32 6a18 18 0 1 0 18 18 18.021 18.021 0 0 0 -18-18zm0 34a16 16 0 1 1 16-16 16.019 16.019 0 0 1 -16 16z"/><path d="m44.555 20.168-12-8a1 1 0 0 0 -1.11 0l-12 8a1 1 0 0 0 .555 1.832h2v8h-2v2h24v-2h-2v-8h2a1 1 0 0 0 .555-1.832zm-12.555-5.968 8.7 5.8h-17.4zm2 7.8v8h-4v-8zm-10 0h4v8h-4zm16 8h-4v-8h4z"/></g></svg>